<svg xmlns="http://www.w3.org/2000/svg" xmlns:xlink="http://www.w3.org/1999/xlink" width="261.99" height="60"
  viewBox="0 0 261.99 60" aria-hidden="true" class="injected-svg fa-icon fa-upload main-logo"
  data-src="https://mondaine-depariso.com/fr/uploads/sites/2/2023/09/header-logo.svg">
  <defs>
    <clipPath id="clip-path-18">
      <rect data-name="Rectangle 1059" width="261.99" height="60" fill="#fff"></rect>
    </clipPath>
  </defs>
  <g data-name="Group 3538" transform="translate(0 0)">
    <g data-name="Group 3538" transform="translate(0 0)" clip-path="url(#clip-path-18)">
      <path data-name="Path 5054"
        d="M30.107,28.445c-.581-4.79-2.035-19.866-2.824-28.03H24.916L15.407,24.2a4.049,4.049,0,0,0-.042-.709c-1.62-3.915-4.693-11.078-8.222-20.241C6.686,2.082,6.063.416,6.063.416H3.031l.083,1.958L0,28.4l1.163.042L4.07,3.374l.167.832L14.285,29.07h.332L24.75,3.664l-.042.5s1.537,16.2,2.284,24.281ZM71.259,14.618c0-7.872-5.772-14.494-14.7-14.494A14.5,14.5,0,0,0,41.692,14.868c0,9.079,6.6,13.952,14.908,13.952,8.264,0,14.658-5.165,14.658-14.2M56.517,27.654c-6.394-.042-11.3-5.414-11.3-12.786,0-6.372,3.489-13.453,11.3-13.453,7.849,0,11.212,6.831,11.212,13.2,0,7.371-4.775,13.077-11.212,13.036M104.4,22.823S87.413,2.748,85.711.416H83.925l.249,2.124c.042,6.039,0,23.656,0,25.905H85.5V5.039l-.29-.916s17.773,21.532,20.763,24.823c-.208-8-.042-20.533-.042-28.529h-1.328c.083,4.332.083,20.658.083,23.115Zm19.392,5.622c1.827,0,6.436.083,8.928-.208,3.2-.333,12.416-2.416,12.416-14.368,0-9.2-7.89-12.7-11.627-13.2a51.242,51.242,0,0,0-6.063-.251H120.51c.083,4.332,0,25.572,0,28.03Zm-.124-26.7c1.7,0,6.478-.083,8.762.459,5.939,1.333,9.759,7.2,9.551,12.952-.291,7.789-5.067,10.12-7.683,11.161-2.824,1.166-9.8.791-10.59.5,0-8-.041-17.076-.041-25.072m54.233,26.7c-1.7-3.957-6.977-16.451-10.59-25.489C166.853,1.832,166.271,0,166.271,0H165.9l-11.71,28.445h1.2l4.07-9.829H170.59c1.329,3.331,2.782,7.121,3.738,9.829ZM159.918,17.409l5.149-12.995v.5s2.824,7,5.024,12.495Zm34.01,11.036c0-7.954-.041-20.033-.041-28.03h-3.073c.083,4.332-.042,25.572-.042,28.03Zm35.423-5.622S212.366,2.748,210.663.416h-1.786l.249,2.124c.042,6.039,0,23.656,0,25.905h1.329V5.039l-.291-.916s17.773,21.532,20.764,24.823c-.208-8-.042-20.533-.042-28.529h-1.328c.083,4.332.083,20.658.083,23.115Zm32.141,5.622.5-1.416c-2.076.375-13.454.25-13.454.25l-.042-12.453c3.986-.083,7.35-.042,9.759.167V13.452c-2.409.292-7.641.25-9.717.25V1.54S258,1.5,260,1.749L259.5.416H245.462v28.03Z"
        transform="translate(0 0)" fill="#fff"></path>
      <path data-name="Path 5055"
        d="M212.938,73.355a.873.873,0,0,1-.671.47,22.99,22.99,0,0,0-2.567.422c-.566.109-1.137.2-1.708.285a5.688,5.688,0,0,1-.975.113,1.889,1.889,0,0,1-1.756-1.187.5.5,0,0,1-.02-.053.414.414,0,0,0-.482-.347,15.115,15.115,0,0,0-5.695,1.146c-.392.167-.789.324-1.187.477a1.8,1.8,0,0,1-1.443.035,1.945,1.945,0,0,1-.987-1.092,2.815,2.815,0,0,1-.157-1.473,10.567,10.567,0,0,1,1.2-3.657c.426-.8.882-1.594,1.321-2.392a2.288,2.288,0,0,0,.117-.3l-.024-.033a.816.816,0,0,0-.2.081,2.625,2.625,0,0,0-.257.239c-.884.874-1.682,1.825-2.485,2.772q-.866,1.022-1.713,2.059a.724.724,0,0,0-.132.328c-.032.186-.058.233-.245.267a.544.544,0,0,0-.3.212q-.478.525-.956,1.049c-.236.257-.48.509-.71.772-.282.321-.535.669-.832.973-.313.32-.657.609-1,.9a.448.448,0,0,1-.605.018,1.152,1.152,0,0,1-.422-.465.761.761,0,0,1-.017-.637,6.076,6.076,0,0,1,1.03-1.636c.292-.348.578-.7.871-1.048a2.87,2.87,0,0,1,1.013-.768,1.8,1.8,0,0,0,.2-.111,1.164,1.164,0,0,1,.934-.2.377.377,0,0,0,.4-.167c.305-.386.613-.769.922-1.153.828-1.033,1.688-2.039,2.6-3a22.925,22.925,0,0,1,1.927-1.823,2.949,2.949,0,0,1,.6-.339.438.438,0,0,1,.472.048,1.381,1.381,0,0,1,.3.3.454.454,0,0,1,.061.413c-.057.192-.1.388-.16.579a2.133,2.133,0,0,1-.16.387c-.324.585-.654,1.168-.984,1.749-.293.516-.605,1.023-.878,1.55a11.819,11.819,0,0,0-.9,2.324,5.679,5.679,0,0,0-.179,1.731,1.684,1.684,0,0,0,.05.336.569.569,0,0,0,.75.475,5.376,5.376,0,0,0,.631-.177.878.878,0,0,0,.279-.166,1.3,1.3,0,0,1,.518-.213c.445-.132.892-.253,1.337-.381a.545.545,0,0,0,.186-.079,2.1,2.1,0,0,1,.9-.354c.428-.092.849-.223,1.281-.285.556-.08,1.118-.117,1.68-.154.49-.031.982-.027,1.473-.054a.6.6,0,0,0,.285-.123,3.86,3.86,0,0,1,1.212-.575.827.827,0,0,1,.874.257,1.2,1.2,0,0,0,.155.148.828.828,0,0,1,.28.807c-.005.126-.115.174-.222.215a3.381,3.381,0,0,1-1.175.209c-.079,0-.158.015-.236.023a.232.232,0,0,0-.233.179.241.241,0,0,0,.133.285,1.092,1.092,0,0,0,.66.115c.3-.038.592-.068.888-.1.495-.059.994-.1,1.483-.186a11.174,11.174,0,0,1,1.925-.179c.317,0,.633-.036.95-.04a1.273,1.273,0,0,1,.707.167l.062.039M190.711,72.31c.2-.093.4-.183.418-.46a.976.976,0,0,0-.418.46m-.485.669,0-.045c-.041-.006-.087-.028-.123-.017-.115.036-.145.106-.131.273l.25-.21"
        transform="translate(-45.629 -15.543)" fill="#fff"></path>
      <path data-name="Path 5056"
        d="M247.766,58.115a4.786,4.786,0,0,1,2.952,1,2.391,2.391,0,0,1,.972,1.849,1.209,1.209,0,0,1-.163.675,8.544,8.544,0,0,1-.924,1.219,9.571,9.571,0,0,1-1.29,1.155,9.435,9.435,0,0,1-2,1.274c-.477.227-.94.488-1.427.691-.5.21-1.028.37-1.545.548-.261.09-.527.161-.784.259a1.585,1.585,0,0,0-.331.205c-.064.046-.108.123-.174.161a.415.415,0,0,1-.226.064.274.274,0,0,0-.288.111c-.2.3-.414.588-.6.894a11.322,11.322,0,0,1-1.846,2.278,12.062,12.062,0,0,1-2.176,1.774,1.7,1.7,0,0,1-.479.159.305.305,0,0,1-.353-.186c-.058-.106-.122-.208-.18-.314a.632.632,0,0,1-.064-.156.184.184,0,0,1,.089-.22,1.363,1.363,0,0,1,.566-.241.677.677,0,0,0,.5-.286.289.289,0,0,1,.095-.078,4.692,4.692,0,0,0,1.219-1.017,6.477,6.477,0,0,1,.666-.647,3.856,3.856,0,0,0,.707-.761c.346-.516.7-1.025,1.057-1.531a.4.4,0,0,0,.042-.385,2.729,2.729,0,0,1-.082-.283.157.157,0,0,1,.137-.208,1.4,1.4,0,0,1,.258-.026.486.486,0,0,0,.449-.249c.319-.541.649-1.075.975-1.611a3.388,3.388,0,0,1,.235-.375,8.729,8.729,0,0,0,.83-1.364,7.038,7.038,0,0,0,.472-.966c.108-.3.389-.33.588-.079.264.335.3.514.055.838a13.23,13.23,0,0,0-.819,1.328c-.348.6-.716,1.181-1.075,1.771a1.309,1.309,0,0,0-.093.195c-.011.027-.017.076,0,.09a.118.118,0,0,0,.093.008c.2-.058.4-.114.6-.18.568-.189,1.136-.379,1.7-.577a2.455,2.455,0,0,0,.42-.2c.625-.36,1.256-.71,1.866-1.094a6.978,6.978,0,0,0,.755-.63.988.988,0,0,1,.126-.114,4.1,4.1,0,0,0,1.115-1.132c.158-.2.295-.422.439-.635.017-.026.037-.068.028-.092a.773.773,0,0,1,.012-.47.561.561,0,0,0-.235-.618,4.194,4.194,0,0,0-2.371-.855,6.164,6.164,0,0,0-1.556.178,11.761,11.761,0,0,0-1.892.578,14.627,14.627,0,0,0-2.561,1.326,4.053,4.053,0,0,0-1.163,1.15,2.035,2.035,0,0,0-.349,1.434,5.09,5.09,0,0,1,.046.679.317.317,0,0,1-.1.243.225.225,0,0,1-.287-.095,1.326,1.326,0,0,1-.2-.34,3.892,3.892,0,0,1-.185-1.356.274.274,0,0,1,.013-.089,5.491,5.491,0,0,1,.694-1.471,5.009,5.009,0,0,1,.963-.892,10.3,10.3,0,0,1,2.932-1.569c.5-.173,1-.357,1.512-.508a5.884,5.884,0,0,1,1.645-.233"
        transform="translate(-57.485 -14.106)" fill="#fff"></path>
      <path data-name="Path 5057"
        d="M294.462,74.159a4.386,4.386,0,0,0,1.087-.036c.245-.043.488-.1.731-.154a.973.973,0,0,0,.575-.357.811.811,0,0,1,.772-.292,9.854,9.854,0,0,1,1.058.179.953.953,0,0,1,.275.176,1.074,1.074,0,0,1-.91.523.562.562,0,0,0-.429.174,1.671,1.671,0,0,1-1.062.528c-.488.073-.973.175-1.463.238-.344.044-.694.039-1.04.061-.437.03-.873.073-1.31.1-.226.011-.452-.01-.678-.011-.374,0-.75-.02-1.121.005-.35.024-.7.1-1.043.148-.6.076-1.2.145-1.8.217-.551.066-1.1.134-1.652.2-.536.06-1.073.114-1.611.167a.241.241,0,0,0-.22.132,1.419,1.419,0,0,1-.787.683,3.5,3.5,0,0,1-1.991.189,1.042,1.042,0,0,1-.8-.708.256.256,0,0,1,.075-.289,1.322,1.322,0,0,1,.266-.19,4.212,4.212,0,0,1,1.487-.451c.067,0,.17-.038.188-.084.034-.091-.058-.14-.131-.184-.557-.327-1.117-.648-1.667-.987a3.027,3.027,0,0,1-.539-.429,1.533,1.533,0,0,1-.447-.959.8.8,0,0,1,0-.148c.027-.32.12-.417.434-.458.183-.023.367-.047.55-.076a2.834,2.834,0,0,1,1.241.12,1.736,1.736,0,0,1,.479.264.41.41,0,0,1,.142.223c.076.285-.082.44-.369.387a7.887,7.887,0,0,0-.825-.134,4.275,4.275,0,0,0-.619.04c-.1.008-.117.072-.076.14a.493.493,0,0,0,.158.168c.742.464,1.49.922,2.232,1.387a1.147,1.147,0,0,1,.239.205.741.741,0,0,0,.667.263c.856-.089,1.713-.17,2.568-.27.389-.045.774-.127,1.162-.184.288-.042.577-.072.866-.107l.045,0c.254-.025.305-.115.186-.341a1.584,1.584,0,0,1-.189-.785.521.521,0,0,1,.342-.513,3.031,3.031,0,0,1,1.428-.239c.527.038,1.054.079,1.58.133.382.039.764.095,1.145.154a.943.943,0,0,1,.8.981Zm-4.346-.36c0,.015,0,.03,0,.045a.717.717,0,0,0,.4.255,2.1,2.1,0,0,0,.469.039,4.447,4.447,0,0,0,1.279-.315c.036-.014.07-.031.105-.047,0-.01,0-.02,0-.03a.738.738,0,0,0-.2-.061c-.445-.008-.89-.021-1.334,0a5.759,5.759,0,0,0-.728.117"
        transform="translate(-68.032 -17.485)" fill="#fff"></path>
      <path data-name="Path 5058"
        d="M250.752,75.949a2.607,2.607,0,0,0,.376-.114c.691-.332,1.382-.663,2.065-1.011a8.673,8.673,0,0,0,.763-.467.364.364,0,0,1,.559.062,1.927,1.927,0,0,1,.236.317.263.263,0,0,1-.056.385,1.85,1.85,0,0,0-.52.94c-.005.021-.006.043-.014.1a2.293,2.293,0,0,0,.373-.125,36.939,36.939,0,0,1,3.539-1.679,32.115,32.115,0,0,1,3.564-1.316c.123-.035.245-.079.367-.116a.5.5,0,0,1,.619.221c.063.095.12.193.176.292a.309.309,0,0,1-.006.294c-.115.272-.232.543-.34.817a3.137,3.137,0,0,0-.086.332c.111-.02.2-.027.276-.051q.825-.241,1.647-.487a11.122,11.122,0,0,0,1.892-.716,1.006,1.006,0,0,0,.225-.167.554.554,0,0,1,.628-.05.254.254,0,0,1,.072.112c.078.225.154.451.225.678.044.144.064.171.213.163.354-.02.709-.061,1.063-.071.528-.016,1.057-.016,1.586-.017a.285.285,0,0,1,.3.175.37.37,0,0,1-.086.389.854.854,0,0,1-.563.229c-.658.088-1.317.176-1.972.286a1.087,1.087,0,0,1-1.2-.5c-.064-.1-.125-.233-.217-.266s-.21.054-.314.1c-.8.317-1.627.552-2.45.8a5.683,5.683,0,0,0-.633.244,1.089,1.089,0,0,1-1.048-.106,1.68,1.68,0,0,1-.546-1.116c.014-.139.047-.276.07-.413a.545.545,0,0,0,0-.068c-.245.079-.482.139-.707.229-.716.282-1.428.573-2.14.866a6.362,6.362,0,0,0-.813.36c-.247.145-.509.242-.764.36Q255.9,76.4,254.7,77a.7.7,0,0,1-.875-.1,1.429,1.429,0,0,1-.526-.9c-.016-.148-.048-.162-.186-.116a2.078,2.078,0,0,0-.813.458.347.347,0,0,1-.114.071c-.3.119-.6.237-.9.352a.748.748,0,0,1-.532,0,1.253,1.253,0,0,1-.913-1.066,1.089,1.089,0,0,1,.229-.788,4.56,4.56,0,0,1,1.9-1.553c.165-.073.333-.143.5-.2a.8.8,0,0,1,.935.345.568.568,0,0,1,.036.511c-.041.11-.127.129-.276.085A2.3,2.3,0,0,0,252.78,74a.381.381,0,0,0-.236.051,6.189,6.189,0,0,0-.7.494c-.309.267-.6.558-.887.846a.7.7,0,0,0-.2.554"
        transform="translate(-60.643 -17.693)" fill="#fff"></path>
      <path data-name="Path 5059"
        d="M275.058,67.078a.469.469,0,0,1-.728.388,1.123,1.123,0,0,1-.509-.785.3.3,0,0,1,.413-.311c.205.094.406.2.605.3a.436.436,0,0,1,.22.408"
        transform="translate(-66.463 -16.103)" fill="#fff"></path>
    </g>
  </g>
</svg>